<?xml version="1.0" encoding="UTF-8"?>
<svg version="1.1" xmlns="http://www.w3.org/2000/svg" width="290" height="174">
<path d="M0 0 C95.7 0 191.4 0 290 0 C290 57.42 290 114.84 290 174 C194.3 174 98.6 174 0 174 C0 116.58 0 59.16 0 0 Z " fill="#FDFDFC" transform="translate(0,0)"/>
<path d="M0 0 C4.86432013 0.38258698 8.54249985 2.93501235 12.625 5.375 C30.10932662 15.43110467 49.56083113 22.69131131 69 28 C69.79970215 28.21849609 70.5994043 28.43699219 71.42333984 28.66210938 C96.3685717 35.32198337 121.61289407 38.22968618 147.375 38.25 C148.26394958 38.25100708 149.15289917 38.25201416 150.06878662 38.25305176 C162.72770132 38.24336519 175.04425036 37.80724475 187.51806641 35.46191406 C190.20801779 34.96128569 192.90421634 34.52128049 195.60546875 34.0859375 C207.03076956 32.19619216 217.99866375 29.59636394 229 26 C229.87672363 25.71688965 230.75344727 25.4337793 231.65673828 25.14208984 C242.94766009 21.6113734 242.94766009 21.6113734 253.9375 17.2734375 C257.25487018 15.89402082 258.65627759 15.81986268 262 17 C263 18 263 18 263.46875 20.26171875 C263 23 263 23 260.28125 25.39453125 C259.03440781 26.22136492 257.77270695 27.02606094 256.5 27.8125 C255.82654541 28.24336914 255.15309082 28.67423828 254.45922852 29.11816406 C247.2458997 33.63848343 239.71652408 37.4257393 232 41 C230.87207031 41.53367188 229.74414062 42.06734375 228.58203125 42.6171875 C215.28072311 48.63630232 201.16994486 52.37590216 187 55.75 C186.19626953 55.94859619 185.39253906 56.14719238 184.56445312 56.35180664 C164.14794727 61.00369395 143.06583734 60.27378219 122.26925373 60.20278788 C117.92248997 60.19012534 113.57572223 60.18909798 109.22894287 60.18673706 C101.03078638 60.18056723 92.83268444 60.16421856 84.63455176 60.14403808 C75.28723603 60.12153748 65.93991743 60.11065036 56.59258127 60.10064721 C37.39502348 60.07984732 18.19751615 60.04476068 -1 60 C-1.02312821 52.32463373 -1.04091753 44.64927104 -1.05181217 36.97387791 C-1.05703995 33.41022578 -1.06413569 29.84659743 -1.07543945 26.28295898 C-1.08834176 22.18993903 -1.09322906 18.0969442 -1.09765625 14.00390625 C-1.10281754 12.71851456 -1.10797882 11.43312286 -1.11329651 10.10877991 C-1.11337204 8.92763107 -1.11344757 7.74648224 -1.11352539 6.52954102 C-1.115746 5.48363297 -1.11796661 4.43772491 -1.12025452 3.36012268 C-1 1 -1 1 0 0 Z " fill="#FF9903" transform="translate(1,114)"/>
<path d="M0 0 C2.43934225 -0.13501894 4.87124104 -0.23403897 7.3125 -0.3125 C8.34793945 -0.3753418 8.34793945 -0.3753418 9.40429688 -0.43945312 C11.42578125 -0.48828125 11.42578125 -0.48828125 15 0 C18.69402952 4.43120373 19.52087424 10.30332945 20.8125 15.78515625 C21.19498901 17.36326332 21.19498901 17.36326332 21.58520508 18.97325134 C22.39804787 22.33448505 23.19925652 25.6983656 24 29.0625 C24.53827973 31.29901666 25.0773343 33.53534699 25.6171875 35.77148438 C26.61815859 39.91950537 27.61377473 44.06874686 28.60546875 48.21899414 C30.02919259 54.15634355 31.50888539 60.07926101 33 66 C34.92753199 59.46150914 36.59172779 52.86124554 38.25 46.25 C38.70971191 44.4246875 38.70971191 44.4246875 39.17871094 42.5625 C41.66192603 32.59888774 43.90377309 22.59372654 45.95800781 12.53222656 C46.18327148 11.4697168 46.40853516 10.40720703 46.640625 9.3125 C46.83172852 8.38050781 47.02283203 7.44851562 47.21972656 6.48828125 C48.07773098 3.75211699 49.02584042 2.07542908 51 0 C54.25 -0.53125 54.25 -0.53125 58 -0.5 C59.2375 -0.5103125 60.475 -0.520625 61.75 -0.53125 C65 0 65 0 66.55908203 1.48291016 C68.62161768 5.08588246 69.39328428 8.77639303 70.3046875 12.8046875 C70.61143402 14.10717438 70.61143402 14.10717438 70.92437744 15.43597412 C71.58392431 18.24689559 72.22964007 21.06079087 72.875 23.875 C73.32195249 25.79234194 73.76970666 27.70949718 74.21826172 29.62646484 C75.49156506 35.08141014 76.74763658 40.54021573 78 46 C78.31692832 47.37698282 78.63397285 48.75393889 78.95117188 50.13085938 C80.32019442 56.08298857 81.6736099 62.03822557 83 68 C83.30292969 66.71609375 83.60585937 65.4321875 83.91796875 64.109375 C88.04165006 46.68054701 92.24724447 29.26971082 97 12 C97.2784375 10.98550781 97.556875 9.97101562 97.84375 8.92578125 C98.1015625 8.02214844 98.359375 7.11851563 98.625 6.1875 C98.84414062 5.41792969 99.06328125 4.64835938 99.2890625 3.85546875 C100 2 100 2 102 0 C105.2578125 -0.1953125 105.2578125 -0.1953125 109.125 -0.125 C111.04699219 -0.09792969 111.04699219 -0.09792969 113.0078125 -0.0703125 C114.48894531 -0.03550781 114.48894531 -0.03550781 116 0 C115.49521866 8.8096068 112.81382595 16.87551841 110.1953125 25.234375 C109.71016146 26.8012098 109.22554112 28.36820902 108.74142456 29.93536377 C107.72946394 33.20480846 106.71182941 36.47241453 105.68994141 39.73876953 C104.3830539 43.91736231 103.0894509 48.0999261 101.79991341 52.28390121 C100.80280719 55.51453103 99.79925329 58.74312929 98.79369736 61.971138 C98.31422369 63.51268208 97.83661356 65.05480711 97.36093521 66.59752655 C96.69515314 68.7529658 96.02085465 70.90555822 95.34423828 73.05761719 C94.96308868 74.28067566 94.58193909 75.50373413 94.1892395 76.76385498 C93.05827923 79.84141122 91.95884264 82.37087571 90 85 C87.24922823 85.52661171 85.23685915 85.70319598 82.5 85.625 C81.82324219 85.64433594 81.14648438 85.66367188 80.44921875 85.68359375 C78.46875 85.6640625 78.46875 85.6640625 75 85 C71.89263992 81.03570098 70.96381662 76.54295691 69.9140625 71.71875 C69.73180618 70.91583023 69.54954987 70.11291046 69.36177063 69.28565979 C68.77479261 66.69217956 68.19989892 64.09618167 67.625 61.5 C67.22564941 59.72691597 66.8253387 57.95404792 66.42407227 56.18139648 C65.63688075 52.70218433 64.85314021 49.22222461 64.07177734 45.74169922 C62.74212811 39.83703303 61.35220321 33.94732422 59.9375 28.0625 C59.73398926 27.21300781 59.53047852 26.36351563 59.32080078 25.48828125 C58.88189632 23.65852681 58.44122435 21.82919641 58 20 C54.09170744 35.29324291 50.31488853 50.58260681 47.04248047 66.02661133 C43.49431129 82.50568871 43.49431129 82.50568871 41 85 C38.52437918 85.18020629 36.1030672 85.27795445 33.625 85.3125 C32.93921875 85.34150391 32.2534375 85.37050781 31.546875 85.40039062 C29.5390625 85.42578125 29.5390625 85.42578125 26 85 C23.13239545 82.03948209 22.15260961 78.86804341 21.01953125 74.9609375 C20.66415283 73.75356934 20.30877441 72.54620117 19.94262695 71.30224609 C19.56589435 69.99317086 19.18918595 68.68408866 18.8125 67.375 C18.21558592 65.33605043 17.61568759 63.29799254 17.01579285 61.25991821 C16.60791272 59.87314417 16.20102899 58.48607671 15.79512024 57.09872437 C13.86438314 50.5044191 11.84637724 43.93817875 9.8125 37.375 C9.16245758 35.26441616 8.51271168 33.15374098 7.86328125 31.04296875 C6.9365751 28.03346282 6.00769527 25.0247212 5.07177734 22.01806641 C4.20835221 19.24307121 3.35335921 16.46560409 2.5 13.6875 C2.24452393 12.87522949 1.98904785 12.06295898 1.72583008 11.22607422 C0.55156449 7.37679447 -0.32544099 4.07614835 0 0 Z " fill="#242F3E" transform="translate(91,3)"/>
<path d="M0 0 C6.73937192 7.4063613 8.27850346 15.44475128 8.37890625 25.1171875 C8.39590073 25.9737796 8.4128952 26.8303717 8.43040466 27.71292114 C8.48317856 30.43354033 8.52363071 33.15414962 8.5625 35.875 C8.60673608 38.58862982 8.65372899 41.3021551 8.70530701 44.01565552 C8.73672442 45.69743912 8.76376981 47.3793126 8.78553772 49.06124878 C8.92535393 57.1202781 9.22074362 63.77011824 13 71 C13.3203125 73.4609375 13.3203125 73.4609375 13 76 C11.42578125 77.8359375 11.42578125 77.8359375 9.3125 79.375 C8.28576172 80.16003906 8.28576172 80.16003906 7.23828125 80.9609375 C5 82 5 82 2.4375 81.94921875 C-0.71248855 80.72254052 -1.57737736 79.30246994 -3.3125 76.4375 C-3.82425781 75.61121094 -4.33601563 74.78492187 -4.86328125 73.93359375 C-5.23839844 73.29550781 -5.61351562 72.65742187 -6 72 C-6.44988281 72.37511719 -6.89976563 72.75023438 -7.36328125 73.13671875 C-18.2905215 81.83033474 -28.10435777 84.43363647 -41.91259766 83.28222656 C-48.49296963 82.39252949 -52.37928635 79.07275904 -56.4375 74.0625 C-61.15261689 67.02247784 -61.85068852 60.35613029 -61 52 C-59.06603693 44.49576006 -54.48104348 38.80278195 -47.9453125 34.71484375 C-41.32298616 31.22875121 -35.25019602 30.80670474 -27.875 30.8125 C-26.61272583 30.8115332 -26.61272583 30.8115332 -25.32495117 30.81054688 C-19.05528853 30.86358257 -13.09735892 31.46538382 -7 33 C-7.36328462 20.93724018 -7.36328462 20.93724018 -13 10.625 C-19.08220342 5.68320972 -30.60277903 7.38209722 -38 8 C-41.38660582 8.79460321 -44.39512151 9.76994845 -47.58984375 11.125 C-50 12 -50 12 -55 12 C-55 8.37 -55 4.74 -55 1 C-38.75163452 -8.4782132 -16.08337488 -11.27747678 0 0 Z " fill="#242F3E" transform="translate(73,7)"/>
<path d="M0 0 C1.20272819 2.40545638 1.10071472 3.94996953 1.0625 6.625 C1.05347656 7.44226562 1.04445313 8.25953125 1.03515625 9.1015625 C1.02355469 9.72804688 1.01195312 10.35453125 1 11 C-2.33958732 12.13591405 -4.16538247 11.86125931 -7.4375 10.625 C-15.69109795 7.55322616 -25.04381845 6.39526549 -33.5625 9.1875 C-37.28318506 11.14931576 -38.64879645 12.03646958 -40 16 C-39.93353102 19.78873166 -39.74701904 22.08407455 -37.32421875 25.0546875 C-34.61768834 27.31998522 -32.18655567 28.35358269 -28.875 29.5625 C-27.72128906 29.98660156 -26.56757813 30.41070312 -25.37890625 30.84765625 C-22.53694141 31.81688125 -19.70234215 32.68937867 -16.8125 33.5 C-8.66942538 35.87395824 -1.82254378 38.83925317 3 46 C3.598125 46.886875 4.19625 47.77375 4.8125 48.6875 C7.12661534 55.14266385 6.91999367 61.55355252 4.25 67.875 C0.6715062 74.89435322 -3.71867626 79.26389375 -11.12109375 82.265625 C-25.05749104 86.40222349 -38.42651246 86.29856622 -52 81 C-54.91015625 79.21875 -54.91015625 79.21875 -57 77 C-57.48828125 74.203125 -57.48828125 74.203125 -57.3125 71.25 C-57.26738281 70.26515625 -57.22226563 69.2803125 -57.17578125 68.265625 C-57.11777344 67.51796875 -57.05976563 66.7703125 -57 66 C-52.80000619 66.59198726 -49.10535453 67.62026764 -45.125 69.0625 C-35.17853555 72.16934759 -24.18772149 72.9291618 -14.6015625 68.265625 C-12.61921045 66.69908338 -11.90209892 65.34811042 -11 63 C-10.56457142 59.00857136 -10.46458289 56.83122072 -12.66333008 53.41772461 C-15.31804384 50.67092382 -17.13800187 49.87460473 -20.76171875 48.75390625 C-22.44104492 48.20959961 -22.44104492 48.20959961 -24.15429688 47.65429688 C-25.32025391 47.29400391 -26.48621094 46.93371094 -27.6875 46.5625 C-39.12591189 43.00688349 -48.60350683 39.59419181 -55 29 C-57.04592003 22.8622399 -57.30963798 15.35383305 -54.94140625 9.2890625 C-50.12491138 1.64010316 -43.42738178 -3.27625954 -34.69921875 -5.53515625 C-23.20982225 -7.51379327 -10.1329566 -6.03264393 0 0 Z " fill="#252F3E" transform="translate(272,6)"/>
<path d="M0 0 C4.51228337 3.38421253 8.80611468 6.62342129 13.0625 10.25 C33.16606432 26.67842432 56.47424834 37.81083018 81 46 C81.68932617 46.23154785 82.37865234 46.4630957 83.08886719 46.70166016 C98.10807011 51.58987288 114.37365406 53.12028159 130 55 C130 55.33 130 55.66 130 56 C87.1 56 44.2 56 0 56 C0 37.52 0 19.04 0 0 Z " fill="#FFFEFD" transform="translate(0,118)"/>
<path d="M0 0 C0.88107422 -0.01611328 1.76214844 -0.03222656 2.66992188 -0.04882812 C8.71309633 -0.05328803 13.8789692 0.88258918 19.4375 3.3125 C20.4375 4.3125 20.4375 4.3125 20.75 7.8125 C20.51947188 23.87262542 14.29606257 38.66808117 3.5859375 50.44921875 C1.43924266 52.31098864 0.21475265 52.94178076 -2.5625 53.3125 C-1.98680051 47.30414336 -0.15230837 42.23711872 2 36.625 C4.80313496 29.04504449 6.48293861 22.47687773 5.4375 14.3125 C1.63467566 11.80333052 -2.22412039 12.05642116 -6.609375 12.1171875 C-7.38057678 12.1200174 -8.15177856 12.12284729 -8.9463501 12.12576294 C-11.40189332 12.13692987 -13.8570676 12.16202771 -16.3125 12.1875 C-17.98046347 12.19753432 -19.64843268 12.20665939 -21.31640625 12.21484375 C-25.39857897 12.23685775 -29.480477 12.27136333 -33.5625 12.3125 C-32.85888672 8.51660156 -32.85888672 8.51660156 -30.19140625 6.6796875 C-29.17949219 6.18726562 -28.16757813 5.69484375 -27.125 5.1875 C-26.13628906 4.68992187 -25.14757812 4.19234375 -24.12890625 3.6796875 C-16.22663111 0.65033777 -8.40526035 -0.03087899 0 0 Z " fill="#FF9905" transform="translate(269.5625,108.6875)"/>
<path d="M0 0 C0.35059409 7.36247591 0.22956238 14.1812607 -4.734375 20.05078125 C-11.14739013 26.0536617 -17.67033082 27.58832832 -26.3359375 27.45703125 C-30.64113679 26.718456 -33.36519918 24.40535578 -36 21 C-37.85166045 15.44501864 -37.88402491 9.98905605 -35.5 4.625 C-26.03246363 -5.31591319 -12.32010019 -2.8160229 0 0 Z " fill="#FBFBFC" transform="translate(66,51)"/>
</svg>
